<svg xmlns="http://www.w3.org/2000/svg" xmlns:xlink="http://www.w3.org/1999/xlink" width="178" zoomAndPan="magnify" viewBox="0 0 133.5 30.000001" height="40" preserveAspectRatio="xMidYMid meet" version="1.2"><defs><clipPath id="816d00eda5"><path d="M 5.847656 4.796875 L 126.996094 4.796875 L 126.996094 23.460938 L 5.847656 23.460938 Z M 5.847656 4.796875 "/></clipPath><clipPath id="89a2260c87"><path d="M 58.222656 9.191406 L 69.476562 9.191406 L 69.476562 19.0625 L 58.222656 19.0625 Z M 58.222656 9.191406 "/></clipPath><clipPath id="c76cccbc77"><path d="M 58.667969 10.800781 C 57.753906 12.300781 58.398438 13.761719 59.203125 14.539062 L 63.921875 19.0625 L 68.539062 14.554688 C 69.289062 13.71875 69.574219 12.835938 69.417969 11.851562 C 69.195312 10.488281 68.074219 9.429688 66.683594 9.277344 C 65.835938 9.1875 65.011719 9.429688 64.371094 9.960938 C 64.199219 10.105469 64.042969 10.265625 63.910156 10.4375 C 63.75 10.242188 63.5625 10.058594 63.351562 9.898438 C 62.613281 9.335938 61.671875 9.113281 60.769531 9.289062 C 59.917969 9.453125 59.148438 10.003906 58.667969 10.800781 Z M 58.667969 10.800781 "/></clipPath></defs><g id="e8c8902931"><g clip-rule="nonzero" clip-path="url(#816d00eda5)"><path style="fill:none;stroke-width:4;stroke-linecap:butt;stroke-linejoin:miter;stroke:#737373;stroke-opacity:1;stroke-miterlimit:4;" d="M 0.00205781 -0.0015434 L 167.151935 -0.0015434 L 167.151935 25.749476 L 0.00205781 25.749476 Z M 0.00205781 -0.0015434 " transform="matrix(0.724789,0,0,0.724789,5.846165,4.797994)"/></g><g clip-rule="nonzero" clip-path="url(#89a2260c87)"><g clip-rule="nonzero" clip-path="url(#c76cccbc77)"><path style=" stroke:none;fill-rule:nonzero;fill:#737373;fill-opacity:1;" d="M 58.222656 9.230469 L 69.476562 9.230469 L 69.476562 19.0625 L 58.222656 19.0625 Z M 58.222656 9.230469 "/></g></g><g style="fill:#737373;fill-opacity:1;"><g transform="translate(33.144862, 17.996601)"><path style="stroke:none" d="M 5.65625 0 L 0.984375 0 L 0.984375 -8.625 L 1.828125 -8.625 L 1.828125 -0.734375 L 5.71875 -0.734375 Z M 5.65625 0 "/></g></g><g style="fill:#737373;fill-opacity:1;"><g transform="translate(39.325639, 17.996601)"><path style="stroke:none" d="M 3.171875 0 L 0.859375 0 L 0.859375 -0.59375 L 1.59375 -0.671875 L 1.59375 -7.921875 L 0.921875 -8.015625 L 0.921875 -8.625 L 3.109375 -8.625 L 3.109375 -8.015625 L 2.4375 -7.921875 L 2.4375 -0.671875 L 3.171875 -0.59375 Z M 3.171875 0 "/></g></g><g style="fill:#737373;fill-opacity:1;"><g transform="translate(43.376349, 17.996601)"><path style="stroke:none" d="M 5.65625 0 L 0.984375 0 L 0.984375 -8.625 L 1.828125 -8.625 L 1.828125 -0.734375 L 5.71875 -0.734375 Z M 5.65625 0 "/></g></g><g style="fill:#737373;fill-opacity:1;"><g transform="translate(48.842836, 17.996601)"><path style="stroke:none" d="M 4.109375 -3.578125 L 6.65625 -8.625 L 7.515625 -8.625 L 4.5 -2.890625 L 4.5 0 L 3.734375 0 L 3.734375 -2.90625 L 0.546875 -8.625 L 1.453125 -8.625 Z M 4.109375 -3.578125 "/></g></g><g style="fill:#737373;fill-opacity:1;"><g transform="translate(56.927281, 17.996601)"><path style="stroke:none" d=""/></g></g><g style="fill:#737373;fill-opacity:1;"><g transform="translate(60.60867, 17.996601)"><path style="stroke:none" d=""/></g></g><g style="fill:#737373;fill-opacity:1;"><g transform="translate(64.290058, 17.996601)"><path style="stroke:none" d=""/></g></g><g style="fill:#737373;fill-opacity:1;"><g transform="translate(67.971447, 17.996601)"><path style="stroke:none" d=""/></g></g><g style="fill:#737373;fill-opacity:1;"><g transform="translate(71.653932, 17.996601)"><path style="stroke:none" d="M 5.75 -6.296875 C 5.75 -5.117188 5.34375 -4.328125 4.53125 -3.921875 L 6.390625 0 L 5.484375 0 L 3.75 -3.671875 C 3.445312 -3.617188 3.117188 -3.59375 2.765625 -3.59375 L 1.828125 -3.59375 L 1.828125 0 L 0.984375 0 L 0.984375 -8.625 L 2.765625 -8.625 C 3.765625 -8.625 4.5 -8.46875 4.96875 -8.15625 C 5.488281 -7.800781 5.75 -7.179688 5.75 -6.296875 Z M 1.828125 -7.9375 L 1.828125 -4.265625 L 2.703125 -4.265625 C 3.429688 -4.265625 3.976562 -4.410156 4.34375 -4.703125 C 4.71875 -5.003906 4.90625 -5.519531 4.90625 -6.25 C 4.90625 -7.1875 4.476562 -7.726562 3.625 -7.875 C 3.351562 -7.914062 3.046875 -7.9375 2.703125 -7.9375 Z M 1.828125 -7.9375 "/></g></g><g style="fill:#737373;fill-opacity:1;"><g transform="translate(78.240955, 17.996601)"><path style="stroke:none" d="M 4.4375 -8.671875 C 6.851562 -8.671875 8.0625 -7.207031 8.0625 -4.28125 C 8.0625 -2.945312 7.71875 -1.890625 7.03125 -1.109375 C 6.34375 -0.335938 5.476562 0.046875 4.4375 0.046875 C 3.320312 0.046875 2.460938 -0.253906 1.859375 -0.859375 C 1.148438 -1.585938 0.796875 -2.675781 0.796875 -4.125 C 0.796875 -5.570312 1.140625 -6.691406 1.828125 -7.484375 C 2.523438 -8.273438 3.394531 -8.671875 4.4375 -8.671875 Z M 2.46875 -1.453125 C 2.914062 -0.941406 3.570312 -0.6875 4.4375 -0.6875 C 5.25 -0.6875 5.914062 -1.007812 6.4375 -1.65625 C 6.96875 -2.300781 7.234375 -3.226562 7.234375 -4.4375 C 7.234375 -5.644531 6.957031 -6.550781 6.40625 -7.15625 C 5.945312 -7.664062 5.289062 -7.921875 4.4375 -7.921875 C 3.625 -7.921875 2.953125 -7.597656 2.421875 -6.953125 C 1.898438 -6.304688 1.640625 -5.378906 1.640625 -4.171875 C 1.640625 -2.960938 1.914062 -2.054688 2.46875 -1.453125 Z M 2.46875 -1.453125 "/></g></g><g style="fill:#737373;fill-opacity:1;"><g transform="translate(86.921119, 17.996601)"><path style="stroke:none" d="M 5.734375 -8.390625 L 5.59375 -7.6875 C 4.957031 -7.832031 4.421875 -7.90625 3.984375 -7.90625 C 2.390625 -7.90625 1.59375 -7.421875 1.59375 -6.453125 C 1.59375 -6.078125 1.707031 -5.789062 1.9375 -5.59375 C 2.175781 -5.40625 2.472656 -5.242188 2.828125 -5.109375 C 3.179688 -4.984375 3.5625 -4.867188 3.96875 -4.765625 C 4.382812 -4.660156 4.769531 -4.523438 5.125 -4.359375 C 5.945312 -3.953125 6.359375 -3.320312 6.359375 -2.46875 C 6.359375 -1.625 6.046875 -0.984375 5.421875 -0.546875 C 4.878906 -0.171875 4.164062 0.015625 3.28125 0.015625 C 2.175781 0.015625 1.25 -0.234375 0.5 -0.734375 L 0.8125 -1.359375 C 1.03125 -1.203125 1.34375 -1.054688 1.75 -0.921875 C 2.164062 -0.785156 2.566406 -0.71875 2.953125 -0.71875 C 3.710938 -0.71875 4.304688 -0.84375 4.734375 -1.09375 C 5.265625 -1.394531 5.53125 -1.832031 5.53125 -2.40625 C 5.53125 -2.820312 5.410156 -3.144531 5.171875 -3.375 C 4.941406 -3.613281 4.644531 -3.800781 4.28125 -3.9375 C 3.925781 -4.082031 3.546875 -4.207031 3.140625 -4.3125 C 2.734375 -4.414062 2.351562 -4.546875 2 -4.703125 C 1.164062 -5.066406 0.75 -5.601562 0.75 -6.3125 C 0.75 -7.03125 0.992188 -7.597656 1.484375 -8.015625 C 1.984375 -8.429688 2.679688 -8.640625 3.578125 -8.640625 C 4.273438 -8.640625 4.992188 -8.554688 5.734375 -8.390625 Z M 5.734375 -8.390625 "/></g></g><g style="fill:#737373;fill-opacity:1;"><g transform="translate(93.655944, 17.996601)"><path style="stroke:none" d="M 5.40625 -7.875 L 1.828125 -7.875 L 1.828125 -4.640625 L 5.140625 -4.640625 L 5.078125 -3.90625 L 1.828125 -3.90625 L 1.828125 -0.734375 L 5.71875 -0.734375 L 5.65625 0 L 0.984375 0 L 0.984375 -8.625 L 5.46875 -8.625 Z M 5.40625 -7.875 "/></g></g></g></svg>